# xmcd
#
# Track frame offsets: 
#        150
#        11655
#        25262
#        35409
#        49504
#        61644
#        73817
#        88556
#        100318
#        113668
#        129354
#        141232
#        156345
#        166326
#        180223
#        191769
#        206944
#        221160
#
# Disc length: 3063 seconds
#
# Revision: 2
# Processed by: cddbd v1.5.2PL0 Copyright (c) Steve Scherf et al.
# Submitted via: ExactAudioCopy v1.3
#
DISCID=fa0bf512
DTITLE=Various Artist - Country . Cd2
DYEAR=2007
DGENRE=Country
TTITLE0=Luice Newton - Crazy Little Thing Called Love
TTITLE1=Willie Nelson -  A Moment Isn´t Very Long
TTITLE2=Dolly Parton -  Release Me
TTITLE3=Johnny Paycheck -  The Only Hell Ma Mama Ever Raised
TTITLE4=Jeanne Pruett -  Back To Back
TTITLE5=Tex Ritter -  The Gallows Pole
TTITLE6=TG Sheppard -  Only One You
TTITLE7=Billie Jo Spears -  Easy The Want In Me
TTITLE8=Kenny Rogers -  Sleep Comes Easy
TTITLE9=Doug Stone - These Lipps Don´t Know Wow To Say Goodbye
TTITLE10=Lynn Anderson -  Rodeo Cowboy
TTITLE11=Porter Wagoner -  Skid Row Joe
TTITLE12=Buck Owens -  Rhythm And Booze
TTITLE13=Johnny Paycheck  -  Someone To Give Me Love To
TTITLE14=Kenny Roders -  Me And Bobby McGee
TTITLE15=Ferlin Husky  -  Little Tom
TTITLE16=Juice Newton -  Love´s Been A Little Hard
TTITLE17=Waylon Jennings -   Loves Gonna Live Here
EXTD=
EXTT0=
EXTT1=
EXTT2=
EXTT3=
EXTT4=
EXTT5=
EXTT6=
EXTT7=
EXTT8=
EXTT9=
EXTT10=
EXTT11=
EXTT12=
EXTT13=
EXTT14=
EXTT15=
EXTT16=
EXTT17=
PLAYORDER=
